<?xml version="1.0" standalone="no"?>
<!DOCTYPE svg PUBLIC "-//W3C//DTD SVG 20010904//EN"
 "http://www.w3.org/TR/2001/REC-SVG-20010904/DTD/svg10.dtd">
<svg version="1.0" xmlns="http://www.w3.org/2000/svg"
 width="2400.000000pt" height="2400.000000pt" viewBox="0 0 2400.000000 2400.000000"
 preserveAspectRatio="xMidYMid meet">
<metadata>
Created by potrace 1.16, written by Peter Selinger 2001-2019
</metadata>
<g transform="translate(0.000000,2400.000000) scale(0.100000,-0.100000)"
fill="#000000" stroke="none">
<path d="M11380 23989 c-1654 -84 -3248 -502 -4730 -1241 -777 -387 -1452
-816 -2124 -1351 -584 -465 -1219 -1083 -1722 -1677 -923 -1089 -1661 -2389
-2151 -3790 -213 -609 -395 -1328 -498 -1965 -110 -682 -155 -1246 -155 -1965
0 -409 9 -645 35 -980 179 -2238 989 -4387 2333 -6189 359 -482 683 -853 1146
-1317 379 -378 652 -625 1012 -911 960 -764 2023 -1372 3174 -1815 1178 -453
2415 -713 3710 -778 251 -13 929 -13 1180 0 1692 85 3267 497 4770 1246 970
484 1785 1037 2630 1783 225 199 772 746 971 971 746 845 1299 1660 1783 2630
749 1503 1161 3078 1246 4770 13 251 13 929 0 1180 -85 1692 -497 3267 -1246
4770 -484 970 -1037 1785 -1783 2630 -199 225 -746 772 -971 971 -845 746
-1660 1299 -2630 1783 -1503 749 -3078 1161 -4770 1246 -224 11 -981 11 -1210
-1z m4761 -1213 c1260 -487 2434 -1197 3449 -2085 641 -562 1238 -1212 1725
-1881 184 -252 220 -304 204 -298 -8 3 -373 128 -812 278 l-798 274 -1691
1385 -1691 1386 -244 430 c-313 550 -327 575 -316 575 5 0 83 -29 174 -64z
m-8604 -462 l-205 -409 -1761 -1415 -1761 -1415 -597 -187 c-328 -104 -598
-186 -601 -184 -6 6 232 323 383 511 426 529 909 1032 1421 1481 935 819 2001
1482 3168 1970 83 35 152 61 154 60 2 -2 -89 -188 -201 -412z m2026 -1368
c1186 -421 2162 -768 2167 -771 7 -4 10 -655 10 -1895 l0 -1888 -2066 -1504
c-1773 -1290 -2070 -1503 -2097 -1502 -25 1 -3348 970 -3353 977 -4 6 -235
4571 -232 4597 3 29 144 145 1698 1391 932 747 1700 1359 1705 1359 6 0 982
-344 2168 -764z m8523 -621 c906 -742 1653 -1354 1660 -1360 11 -8 -9 -440
-106 -2319 -65 -1269 -121 -2310 -123 -2313 -13 -12 -3442 -991 -3452 -985 -7
4 -929 680 -2049 1502 l-2036 1495 0 1900 0 1901 2213 766 c1216 422 2220 766
2229 765 9 -1 758 -609 1664 -1352z m-12261 -6654 l1690 -508 500 -1499 c383
-1147 576 -1708 822 -2389 177 -489 323 -895 325 -901 2 -9 -2188 -3337 -2222
-3377 -4 -5 -425 153 -936 351 -763 296 -1110 437 -1944 791 -558 238 -1020
437 -1026 444 -10 11 -1481 3648 -1491 3687 -2 8 145 262 327 564 326 542 345
570 1286 1948 526 769 961 1398 967 1398 7 0 773 -229 1702 -509z m14298 -293
c412 -639 636 -1000 1218 -1968 391 -652 712 -1189 712 -1195 0 -5 -336 -867
-745 -1914 l-745 -1904 -1094 -402 c-602 -222 -1499 -559 -1993 -749 -721
-278 -902 -344 -912 -334 -28 30 -2138 3424 -2136 3438 4 50 171 514 452 1255
178 468 540 1443 805 2168 266 725 486 1321 489 1324 8 9 3407 1062 3427 1062
11 1 185 -259 522 -781z m3411 -1875 c-2 -38 -9 -147 -14 -243 -105 -1759
-646 -3530 -1547 -5070 -404 -689 -869 -1324 -1398 -1909 -202 -223 -224 -247
-225 -236 0 6 74 502 164 1103 121 803 168 1097 179 1105 8 7 364 904 790
1995 l774 1983 634 669 c349 367 637 669 641 669 4 1 5 -29 2 -66z m-22615
-735 c231 -257 421 -472 421 -478 0 -5 351 -879 779 -1942 l779 -1933 137
-909 c74 -500 134 -913 132 -919 -8 -24 -453 550 -667 861 -1156 1679 -1831
3562 -2005 5592 -17 205 -18 217 -6 205 4 -6 198 -220 430 -477z m13303 -2466
c2 -10 504 -815 1116 -1788 612 -973 1112 -1773 1112 -1779 -1 -5 -584 -783
-1297 -1728 l-1295 -1717 -2039 0 -2038 0 -1331 1765 c-732 971 -1338 1771
-1345 1779 -8 8 -20 16 -26 18 -6 2 435 679 982 1503 546 825 1061 1605 1146
1733 l153 232 2429 0 c2351 0 2430 -1 2433 -18z m-4522 -7142 c0 -7 728 -10
2163 -10 l2164 0 448 -155 c246 -85 450 -156 452 -158 12 -13 -575 -145 -892
-201 -693 -124 -1296 -176 -2035 -176 -808 0 -1503 67 -2250 216 -352 71 -918
210 -942 233 -7 6 843 257 880 260 6 1 12 -3 12 -9z"/>
</g>
</svg>
